<?xml version="1.0" ?><!DOCTYPE svg  PUBLIC '-//W3C//DTD SVG 1.1//EN'  'http://www.w3.org/Graphics/SVG/1.1/DTD/svg11.dtd'><svg height="135px" id="Layer_1" style="enable-background:new 0 0 135 135;" version="1.1" viewBox="0 0 135 135" width="135px" xml:space="preserve" xmlns="http://www.w3.org/2000/svg" xmlns:xlink="http://www.w3.org/1999/xlink"><style type="text/css">
<![CDATA[
	.st0{fill:#465652;}
	.st1{fill:#AAB9BA;}
	.st2{fill:#47C67B;}
	.st3{fill:#AAC8D1;}
	.st4{fill:none;stroke:#E83834;stroke-width:6;stroke-linecap:round;stroke-linejoin:round;stroke-miterlimit:10;}
	.st5{fill:#7BC67B;}
	.st6{fill:#7BC7FF;}
	.st7{fill:#7C34C1;}
	.st8{fill:#7C8D96;}
	.st9{fill:#AD2707;}
	.st10{fill:#ADB8BC;}
	.st11{fill:#107510;}
	.st12{fill:#7FE5D8;}
	.st13{fill:#AF4AD1;}
	.st14{fill:#E02B7E;}
	.st15{fill:#E04038;}
	.st16{fill:#AFD7DD;}
	.st17{fill:#E0A010;}
	.st18{fill:#E0D5A4;}
	.st19{fill:#12B2B2;}
	.st20{fill:#12D66B;}
	.st21{fill:#E1A9FF;}
	.st22{fill:#1362A8;}
	.st23{fill:#E2378D;}
	.st24{fill:#E29C37;}
	.st25{fill:#E2B90E;}
	.st26{fill:#E2BF91;}
	.st27{fill:#E2CBAA;}
	.st28{fill:#14A594;}
	.st29{fill:#E4E9ED;}
	.st30{fill:#4A5D60;}
	.st31{fill:#E5B076;}
	.st32{fill:#E5B1C4;}
	.st33{fill:#E5E4C3;}
	.st34{fill:#4B6466;}
	.st35{fill:#E6FF2E;}
	.st36{fill:#18AA67;}
	.st37{fill:#E86207;}
	.st38{fill:#E8A113;}
	.st39{fill:#E8B5A6;}
	.st40{fill:#E8E8ED;}
	.st41{fill:#4E5154;}
	.st42{fill:#E9F1F4;}
	.st43{fill:#4F4B48;}
	.st44{fill:#4F74E8;}
	.st45{fill:#808E93;}
	.st46{fill:#80949B;}
	.st47{fill:#80EDAC;}
	.st48{fill:#B122E0;}
	.st49{fill:#B2C4CC;}
	.st50{fill:#83D839;}
	.st51{fill:#B3C6C6;}
	.st52{fill:none;stroke:#33363A;stroke-width:3;stroke-linecap:round;stroke-linejoin:round;stroke-miterlimit:10;}
	.st53{fill:#1A8E1C;}
	.st54{fill:#1A93D6;}
	.st55{fill:#B50B0B;}
	.st56{fill:#1AD88F;}
	.st57{fill:#B5DAF4;}
	.st58{fill:#EA7B1F;}
	.st59{fill:#EA81BD;}
	.st60{fill:#87B8D6;}
	.st61{fill:#87C3F4;}
	.st62{fill:#EAC79D;}
	.st63{fill:#EADF11;}
	.st64{fill:#EAE4C5;}
	.st65{fill:#B78094;}
	.st66{fill:#8844D8;}
	.st67{fill:#EBF4F7;}
	.st68{fill:#893015;}
	.st69{fill:#89410B;}
	.st70{fill:#899BA3;}
	.st71{fill:#EDE3B9;}
	.st72{enable-background:new    ;}
	.st73{fill:#50FF9F;}
	.st74{fill:#EEDCF4;}
	.st75{fill:#EFA37D;}
	.st76{fill:#EFA3CC;}
	.st77{fill:#EFC99A;}
	.st78{fill:#54AF79;}
	.st79{fill:#BA503A;}
	.st80{fill:#BA8663;}
	.st81{fill:#8B4FE0;}
	.st82{fill:#58ED9B;}
	.st83{fill:#BC7DFF;}
	.st84{fill:#8D9AA3;}
	.st85{fill:#BCCAD3;}
	.st86{fill:#8DE4FF;}
	.st87{fill:#20B518;}
	.st88{fill:#BF44F2;}
	.st89{fill:#21CEA1;}
	.st90{fill:#BFDAE0;}
	.st91{fill:#F0FBFC;}
	.st92{fill:#F2D9A7;}
	.st93{fill:#F2EAC9;}
	.st94{fill:#24D1AF;}
	.st95{fill:#25931C;}
	.st96{fill:#F4C4B3;}
	.st97{fill:#F4D3A2;}
	.st98{fill:#F4D647;}
	.st99{fill:#F4D7B8;}
	.st100{fill:#F4EC8E;}
	.st101{fill:#5B524D;}
	.st102{fill:#F77819;}
	.st103{fill:#F79AE1;}
	.st104{fill:#5E707A;}
	.st105{fill:#F93585;}
	.st106{fill:#F95D5D;}
	.st107{fill:#F9C19B;}
	.st108{fill:#F9CB58;}
	.st109{fill:#F9D2B2;}
	.st110{fill:#F9F07D;}
	.st111{fill:#F9F1D2;}
	.st112{fill:#F9F4B7;}
	.st113{fill:#F9F9E4;}
	.st114{fill:#5F1DAA;}
	.st115{fill:#5F9AD6;}
	.st116{fill:#C0C0C4;}
	.st117{fill:#91EA57;}
	.st118{fill:#C12727;}
	.st119{fill:#C191A0;}
	.st120{fill:#923BB7;}
	.st121{fill:#93A0A3;}
	.st122{fill:#93F9EA;}
	.st123{fill:#93FF5A;}
	.st124{fill:#C4833D;}
	.st125{fill:#95A2A5;}
	.st126{fill:#965514;}
	.st127{fill:#96562C;}
	.st128{fill:#2AF42F;}
	.st129{fill:#C5D7DD;}
	.st130{fill:#C68510;}
	.st131{fill:#C6A86D;}
	.st132{fill:#C6BB8D;}
	.st133{fill:#2C9DCE;}
	.st134{fill:#FBFCF2;}
	.st135{fill:#FC70B0;}
	.st136{fill:#FCE6C8;}
	.st137{fill:#FCF7E3;}
	.st138{fill:#C90D6B;}
	.st139{fill:#FDFEFF;}
	.st140{fill:#FDFFDC;}
	.st141{fill:#FF1A1A;}
	.st142{fill:#FF5252;}
	.st143{fill:#FF5B00;}
	.st144{fill:#FF6155;}
	.st145{fill:#FF630D;}
	.st146{fill:#FF6666;}
	.st147{fill:#FF7676;}
	.st148{fill:#FF7900;}
	.st149{fill:#FF860D;}
	.st150{fill:#FF8B00;}
	.st151{fill:#FF8F8F;}
	.st152{fill:#FF900B;}
	.st153{fill:#FF908A;}
	.st154{fill:#FF960B;}
	.st155{fill:#FF9C0D;}
	.st156{fill:#FFA9D4;}
	.st157{fill:#FFAA00;}
	.st158{fill:#FFAD40;}
	.st159{fill:#FFAF10;}
	.st160{fill:#FFB000;}
	.st161{fill:#FFBE08;}
	.st162{fill:#FFBF31;}
	.st163{fill:#FFC200;}
	.st164{fill:#FFCAE8;}
	.st165{fill:#FFCCF5;}
	.st166{fill:#FFD00B;}
	.st167{fill:#FFD039;}
	.st168{fill:#FFD400;}
	.st169{fill:#FFD833;}
	.st170{fill:#FFDB80;}
	.st171{fill:#FFDDD2;}
	.st172{fill:#FFE6D4;}
	.st173{fill:#FFE6EB;}
	.st174{fill:#FFE98D;}
	.st175{fill:#FFECD2;}
	.st176{fill:#FFF1D9;}
	.st177{fill:#FFF24D;}
	.st178{fill:#FFF3C2;}
	.st179{fill:#FFF4C7;}
	.st180{fill:#FFF800;}
	.st181{fill:#FFF80D;}
	.st182{fill:#FFF9DE;}
	.st183{fill:#FFFBD7;}
	.st184{fill:#FFFBEB;}
	.st185{fill:#FFFCC0;}
	.st186{fill:#FFFCDC;}
	.st187{fill:#FFFFFA;}
	.st188{fill:#FFFFFF;}
	.st189{fill:#63797F;}
	.st190{fill:#65E529;}
	.st191{fill:#66310E;}
	.st192{fill:#663C17;}
	.st193{fill:#9A5AE5;}
	.st194{fill:#CA30EF;}
	.st195{fill:#6892FC;}
	.st196{fill:#9CFFC4;}
	.st197{fill:#CC4306;}
	.st198{fill:#CC549E;}
	.st199{fill:#9E3256;}
	.st200{fill:#CDFFBB;}
	.st201{fill:#CE86AF;}
	.st202{fill:#CED9DD;}
	
		.st203{fill:none;stroke:#33363A;stroke-width:3;stroke-linecap:round;stroke-linejoin:round;stroke-miterlimit:10;stroke-dasharray:6;}
	.st204{fill:#CFE1E2;}
	.st205{fill:#33363A;}
	.st206{fill:#34C166;}
	.st207{fill:#364B5B;}
	.st208{fill:#3662CE;}
	.st209{fill:#36C6FF;}
	.st210{fill:#6ADB9A;}
	.st211{fill:#6D5C4D;}
	.st212{fill:#6EBDF9;}
	.st213{fill:#0031FF;}
	.st214{fill:#0062FF;}
	.st215{fill:#0068FF;}
	.st216{fill:#0086FF;}
	.st217{fill:#009BE8;}
	.st218{fill:#00AAFF;}
	.st219{fill:#D271FF;}
	.st220{fill:#D363A9;}
	.st221{fill:#D3964C;}
	.st222{fill:#D3DFE2;}
	.st223{fill:#D3E0E2;}
	.st224{fill:#D3EFF4;}
	.st225{fill:#063B66;}
	.st226{fill:#D60909;}
	.st227{fill:#D61D1D;}
	.st228{fill:#D7F0FF;}
	.st229{fill:#09B285;}
	.st230{fill:#D8D593;}
	.st231{fill:#D8E2EA;}
	.st232{fill:#D8E5EA;}
	.st233{fill:#3E5054;}
	.st234{fill:#D988FF;}
	.st235{fill:#D9E7E8;}
	.st236{fill:#702252;}
	.st237{fill:#70D3E0;}
	.st238{fill:#A02FF2;}
	.st239{fill:#A2F255;}
	.st240{fill:#A35616;}
	.st241{fill:#A3CCCC;}
	.st242{fill:#0A6ADD;}
	.st243{fill:#A5145D;}
	.st244{fill:#A57555;}
	.st245{fill:#77D6FC;}
	.st246{fill:#7815CE;}
	.st247{fill:#A7BBC1;}
	.st248{fill:#DBD279;}
	.st249{fill:#0D5C9E;}
	.st250{fill:#A83C11;}
	.st251{fill:#A8633D;}
	.st252{fill:#A8A3E5;}
	.st253{fill:#DCE6EA;}
	.st254{fill:#DCE7EA;}
	.st255{fill:#A962E8;}
	.st256{fill:#DD2466;}
	.st257{fill:#DDC38A;}
	.st258{fill:#DDD2B1;}
	.st259{fill:#DFE7E8;}
	.st260{fill:#42B1E8;}
	.st261{fill:#436377;}
	.st262{fill:#43B530;}
]]>
</style><g><g><g><polygon class="st183" points="93.229,67.499 67.5,130.608 41.772,67.499 67.5,4.392    "/></g><g><polygon class="st110" points="85.729,67.499 67.5,130.608 49.272,67.499 67.5,4.392    "/></g><g><polygon class="st166" points="77.088,67.499 67.5,130.608 57.912,67.499 67.5,4.392    "/></g><g><path class="st205" d="M67.5,132.108c-0.741,0-1.372-0.542-1.483-1.275l-9.588-63.109c-0.022-0.149-0.022-0.301,0-0.45     l9.588-63.107c0.111-0.733,0.742-1.275,1.483-1.275s1.372,0.542,1.483,1.275l9.588,63.107c0.022,0.149,0.022,0.301,0,0.45     l-9.588,63.109C68.872,131.567,68.241,132.108,67.5,132.108z M59.43,67.499l8.07,53.123l8.07-53.123L67.5,14.378L59.43,67.499z"/></g><g><path class="st205" d="M67.5,132.108c-0.609,0-1.159-0.369-1.389-0.934L40.384,68.065c-0.148-0.363-0.148-0.77,0-1.133     L66.111,3.825c0.229-0.564,0.779-0.934,1.389-0.934s1.159,0.369,1.389,0.934l25.729,63.107c0.148,0.363,0.148,0.77,0,1.133     l-25.729,63.109C68.659,131.739,68.109,132.108,67.5,132.108z M43.393,67.499L67.5,126.635l24.108-59.136L67.5,8.365     L43.393,67.499z"/></g><g><path class="st205" d="M92.713,69.001H42.288c-0.828,0-1.5-0.671-1.5-1.5s0.672-1.5,1.5-1.5h50.425c0.828,0,1.5,0.671,1.5,1.5     S93.541,69.001,92.713,69.001z"/></g></g><g><g><g><g><path class="st205" d="M121.666,69.003h-0.992c-0.828,0-1.5-0.671-1.5-1.5s0.672-1.5,1.5-1.5h0.992c0.828,0,1.5,0.671,1.5,1.5       S122.494,69.003,121.666,69.003z"/></g><g><path class="st205" d="M111.633,69.003L111.633,69.003l-5.824-0.001c-0.829,0-1.5-0.672-1.5-1.5c0-0.828,0.672-1.5,1.5-1.5l0,0       l5.824,0.001c0.829,0,1.5,0.672,1.5,1.5C113.133,68.332,112.461,69.003,111.633,69.003z"/></g></g><g><g><g><path class="st205" d="M115.34,41.643c-0.381,0-0.763-0.145-1.055-0.434c-0.589-0.583-0.595-1.532-0.012-2.121l0.701-0.709        c0.582-0.589,1.533-0.594,2.121-0.012c0.589,0.583,0.595,1.532,0.012,2.121l-0.701,0.709        C116.113,41.494,115.727,41.643,115.34,41.643z"/></g><g><path class="st205" d="M104.824,52.154c-0.384,0-0.769-0.146-1.062-0.44c-0.585-0.586-0.585-1.536,0.002-2.122l4.127-4.122        c0.584-0.584,1.535-0.585,2.121,0.001c0.585,0.586,0.585,1.536-0.002,2.122l-4.127,4.122        C105.592,52.008,105.208,52.154,104.824,52.154z"/></g></g><g><g><path class="st205" d="M116.041,97.066c-0.384,0-0.768-0.146-1.061-0.439l-0.705-0.705c-0.586-0.585-0.586-1.536,0-2.121        c0.586-0.586,1.535-0.586,2.121,0l0.705,0.705c0.586,0.585,0.586,1.536,0,2.121C116.809,96.92,116.425,97.066,116.041,97.066z        "/></g><g><path class="st205" d="M108.949,89.972c-0.384,0-0.767-0.146-1.06-0.438l-4.127-4.12c-0.587-0.585-0.587-1.535-0.002-2.121        c0.586-0.587,1.535-0.587,2.121-0.002l4.127,4.12c0.587,0.585,0.587,1.535,0.002,2.121        C109.718,89.825,109.333,89.972,108.949,89.972z"/></g></g></g></g><g><g><g><path class="st205" d="M14.327,68.997h-0.992c-0.828,0-1.5-0.671-1.5-1.5s0.672-1.5,1.5-1.5h0.992c0.828,0,1.5,0.671,1.5,1.5       S15.155,68.997,14.327,68.997z"/></g><g><path class="st205" d="M29.192,68.998L29.192,68.998l-5.824-0.001c-0.829,0-1.5-0.672-1.5-1.5c0-0.828,0.672-1.5,1.5-1.5l0,0       l5.824,0.001c0.829,0,1.5,0.672,1.5,1.5C30.692,68.327,30.021,68.998,29.192,68.998z"/></g></g><g><g><g><path class="st205" d="M18.96,97.066c-0.381,0-0.763-0.145-1.055-0.434c-0.589-0.583-0.595-1.532-0.012-2.121l0.701-0.709        c0.581-0.589,1.532-0.594,2.121-0.012s0.595,1.532,0.012,2.121l-0.701,0.709C19.733,96.918,19.347,97.066,18.96,97.066z"/></g><g><path class="st205" d="M26.05,89.969c-0.384,0-0.769-0.146-1.062-0.44c-0.585-0.586-0.585-1.536,0.001-2.121l4.127-4.123        c0.586-0.585,1.536-0.586,2.122,0.001c0.585,0.586,0.585,1.536-0.001,2.121L27.11,89.53        C26.817,89.822,26.434,89.969,26.05,89.969z"/></g></g><g><g><path class="st205" d="M19.665,41.64c-0.384,0-0.769-0.146-1.062-0.44l-0.705-0.706c-0.585-0.586-0.585-1.536,0.002-2.122        c0.584-0.585,1.535-0.585,2.121,0.001l0.705,0.706c0.585,0.586,0.585,1.536-0.002,2.122        C20.433,41.494,20.049,41.64,19.665,41.64z"/></g><g><path class="st205" d="M30.179,52.148c-0.384,0-0.767-0.146-1.06-0.438l-4.127-4.119c-0.586-0.585-0.587-1.535-0.002-2.121        s1.534-0.588,2.121-0.002l4.127,4.119c0.586,0.585,0.587,1.535,0.002,2.121C30.947,52.001,30.563,52.148,30.179,52.148z"/></g></g></g></g></g></g></svg>